<?xml version="1.0" encoding="UTF-8" standalone="no"?>
<svg
   xmlns:dc="http://purl.org/dc/elements/1.1/"
   xmlns:cc="http://creativecommons.org/ns#"
   xmlns:rdf="http://www.w3.org/1999/02/22-rdf-syntax-ns#"
   xmlns:svg="http://www.w3.org/2000/svg"
   xmlns="http://www.w3.org/2000/svg"
   xmlns:sodipodi="http://sodipodi.sourceforge.net/DTD/sodipodi-0.dtd"
   xmlns:inkscape="http://www.inkscape.org/namespaces/inkscape"
   id="f65dcaaa-a43f-44d9-8793-dc16a3dce27d"
   data-name="Layer 1"
   width="150mm"
   height="125mm"
   viewBox="0 0 566.92914 472.44095"
   version="1.1"
   sodipodi:docname="circuit.svg"
   inkscape:version="0.92.5 (2060ec1f9f, 2020-04-08)">
  <metadata
     id="metadata87">
    <rdf:RDF>
      <cc:Work
         rdf:about="">
        <dc:format>image/svg+xml</dc:format>
        <dc:type
           rdf:resource="http://purl.org/dc/dcmitype/StillImage" />
        <dc:title>circuit_board</dc:title>
      </cc:Work>
    </rdf:RDF>
  </metadata>
  <defs
     id="defs85">
    <inkscape:perspective
       sodipodi:type="inkscape:persp3d"
       inkscape:vp_x="0 : 238.40738 : 1"
       inkscape:vp_y="0 : 1000 : 0"
       inkscape:vp_z="888 : 238.40738 : 1"
       inkscape:persp3d-origin="444 : 158.93825 : 1"
       id="perspective74" />
  </defs>
  <sodipodi:namedview
     pagecolor="#ffffff"
     bordercolor="#666666"
     borderopacity="1"
     objecttolerance="10000"
     gridtolerance="10000"
     guidetolerance="10000"
     inkscape:pageopacity="0"
     inkscape:pageshadow="2"
     inkscape:window-width="1368"
     inkscape:window-height="711"
     id="namedview83"
     showgrid="false"
     inkscape:zoom="1.0128827"
     inkscape:cx="114.89924"
     inkscape:cy="246.6482"
     inkscape:window-x="0"
     inkscape:window-y="0"
     inkscape:window-maximized="1"
     inkscape:current-layer="f65dcaaa-a43f-44d9-8793-dc16a3dce27d"
     units="mm"
     width="200mm" />
  <title
     id="title2">circuit_board</title>
  <polygon
     points="669.601,68.974 697.681,58.277 705.704,81.008 692.332,107.751 "
     id="polygon14"
     transform="matrix(1,0,0,0.85468441,-293.2225,33.32181)"
     style="fill:#e5c298;fill-opacity:1" />
  <path
     d="m 471.98441,317.98361 c -4.39919,5.2685 -38.32264,35.7594 -61.01408,56.0106 -6.298,5.6113 -11.72682,10.4455 -15.41728,13.7254 -3.236,2.8686 -5.13469,4.5486 -5.13469,4.5486 l -10.25586,-18.3312 -4.45273,-7.9541 0.0668,-0.068 2.79468,-3.0515 26.64935,-29.1424 27.98651,-30.5938 -22.73152,-38.8565 28.08011,-3.4285 18.66662,0.9371 4.0649,0.2057 c 0,0 17.38289,47.9993 10.69715,55.9992 z"
     id="path16"
     inkscape:connector-curvature="0"
     style="fill:#191923;stroke-width:0.92449141;fill-opacity:1" />
  <path
     d="m 393.09266,411.69641 c -1.73828,1.4857 -4.76024,-0.4114 -8.03627,-3.6571 -6.77936,-6.7199 -14.69525,-19.1996 -14.69525,-19.1996 l -9.36,-17.1426 c 1.00286,-5.12 10.17568,-5.7714 14.77547,-5.7828 1.56444,0 2.60746,0.068 2.60746,0.068 l 0.77557,0.9828 16.39345,20.7539 c 0,0 2.88816,19.4055 -2.46043,23.9769 z"
     id="path18"
     inkscape:connector-curvature="0"
     style="fill:#2f2e41;stroke-width:0.92449141" />
  <path
     d="m 395.55305,387.71961 c 0,0 2.8882,19.4055 -2.46039,23.9768 -1.73828,1.4857 -4.76024,-0.4114 -8.03627,-3.6571 l -4.89389,-34.1023 -1.00286,-6.9713 -0.58835,-4.1028 26.64935,-29.1425 5.74973,40.2738 c -6.29804,5.6113 -11.72687,10.4455 -15.41732,13.7254 z"
     id="path20"
     inkscape:connector-curvature="0"
     style="opacity:0.2;stroke-width:0.92449141" />
  <polygon
     points="731.778,266.203 750.445,267.3 750.498,267.54 707.295,277.409 703.698,270.215 "
     id="polygon22"
     transform="matrix(1,0,0,0.85468441,-293.2225,33.32181)"
     style="opacity:0.2" />
  <polygon
     points="671.607,208.706 662.246,208.706 664.921,296.958 683.641,449.393 714.395,449.393 701.024,339.746 707.71,278.238 754.51,267.54 741.138,206.032 "
     id="polygon24"
     transform="matrix(1,0,0,0.85468441,-293.2225,33.32181)"
     style="fill:#191923;fill-opacity:1" />
  <path
     d="m 393.09266,413.98211 c 0,0 -2.6743,15.9998 -1.33715,17.1426 1.33715,1.1429 2.6743,2.2857 2.6743,4.5714 0,2.2857 16.04578,7.9998 24.06867,3.4285 8.02289,-4.5713 2.67429,-11.4284 2.67429,-11.4284 l -8.02289,-13.7141 z"
     id="path26"
     inkscape:connector-curvature="0"
     style="fill:#2f2e41;stroke-width:0.92449141" />
  <ellipse
     cx="387.74408"
     cy="77.987244"
     id="circle28"
     style="fill:#e5c298;stroke-width:0.92449141;fill-opacity:1"
     rx="22.73152"
     ry="19.428276" />
  <polygon
     points="739.801,218.066 714.395,83.014 703.03,72.343 694.338,88.363 676.849,81.338 666.258,212.717 "
     id="polygon30"
     transform="matrix(1,0,0,0.85468441,-293.2225,33.32181)"
     style="fill:#ffbd2b;fill-opacity:1" />
  <path
     d="m 381.29985,99.448313 -13.613,9.395597 -25.40582,11.4284 9.36,71.9989 1.33715,41.1423 c 0,0 -17.38292,36.5708 -4.01144,45.7135 13.37148,9.1428 28.08011,5.7142 25.40581,-13.714 -2.6743,-19.4283 -8.02288,-33.1424 17.38293,-53.7135 25.40581,-20.5712 3.15738,-117.075397 -10.45563,-112.251197 z"
     id="path32"
     inkscape:connector-curvature="0"
     style="fill:#191923;stroke-width:0.92449141;fill-opacity:1" />
  <path
     d="m 408.42526,92.73611 16.759,9.2508 22.73152,10.2855 17.38289,164.569 -38.7773,10.2855 c 0,0 -21.48359,-189.927397 -18.09611,-194.3908 z"
     id="path34"
     inkscape:connector-curvature="0"
     style="fill:#191923;stroke-width:0.92449141;fill-opacity:1" />
  <path
     d="m 451.92718,228.84211 c 0,0 -20.05722,26.2853 -5.34859,26.2853 14.70863,0 18.72008,-21.7139 18.72008,-21.7139 z"
     id="path36"
     inkscape:connector-curvature="0"
     style="fill:#e5c298;stroke-width:0.92449141;fill-opacity:1" />
  <path
     d="m 369.02399,228.84211 c 0,0 20.05723,26.2853 5.34859,26.2853 -14.70864,0 -18.72008,-21.7139 -18.72008,-21.7139 z"
     id="path38"
     inkscape:connector-curvature="0"
     style="fill:#e5c298;stroke-width:0.92449141;fill-opacity:1" />
  <path
     d="m 389.08122,49.41631 -6.68575,-3.4286 1.33715,2.2857 -5.34859,-1.1428 1.33715,1.1428 -6.68574,-1.1428 2.67429,2.2857 c 0,0 -10.69718,0 -12.03433,9.1427 l -6.68574,1.1428 2.67429,3.4285 v 3.4285 l 2.6743,2.2857 v 3.4285 l 2.6743,5.7143 2.67429,-7.9999 c 0,0 12.03434,2.2857 17.38293,-6.857 0,0 1.33715,3.4285 8.02289,2.2856 l 10.69719,15.9998 c 0,0 1.33714,-7.093 6.01716,-8.1179 4.68002,-1.0248 2.00573,-10.1675 2.00573,-10.1675 0,0 -4.01145,-3.4286 -4.01145,-5.7142 0,-2.2857 -4.01144,-4.5714 -6.68574,-4.5714 -2.6743,0 -9.36,-4.5714 -9.36,-4.5714 z"
     id="path40"
     inkscape:connector-curvature="0"
     style="fill:#2f2e41;stroke-width:0.92449141" />
  <path
     d="m 352.97821,121.41521 -6.22436,-3.1549 -4.47282,2.012 c 0,0 -5.3486,2.2857 -6.68574,10.2856 -1.33714,7.9999 -14.70864,57.142 -14.70864,57.142 0,0 -1.33714,7.9998 5.3486,21.7139 6.68574,13.7141 32.09156,37.7137 32.09156,37.7137 l 24.06869,-17.1426 -36.103,-37.7137 9.36,-30.8567 z"
     id="path42"
     inkscape:connector-curvature="0"
     style="fill:#191923;stroke-width:0.92449141;fill-opacity:1" />
  <polygon
     points="763.87,239.46 738.464,230.1 738.464,171.266 730.441,92.374 741.138,92.374 758.521,157.894 "
     id="polygon44"
     transform="matrix(1,0,0,0.85468441,-293.2225,33.32181)"
     style="fill:#191923;fill-opacity:1" />
  <rect
     x="117.56605"
     y="148.46233"
     width="2"
     height="82.555183"
     id="rect46"
     style="fill:#3f3d56" />
  <circle
     cx="118.56611"
     cy="235.76189"
     r="5.69344"
     id="circle48"
     style="fill:#ffbd2b;fill-opacity:1" />
  <rect
     x="160.26672"
     y="148.46233"
     width="2"
     height="82.555183"
     id="rect50"
     style="fill:#3f3d56" />
  <circle
     cx="161.26691"
     cy="235.76189"
     r="5.69344"
     id="circle52"
     style="fill:#3f3d56" />
  <rect
     x="235.23061"
     y="148.46233"
     width="2"
     height="82.555183"
     id="rect54"
     style="fill:#3f3d56" />
  <circle
     cx="236.23061"
     cy="235.76189"
     r="5.69344"
     id="circle56"
     style="fill:#3f3d56" />
  <circle
     cx="204.91664"
     cy="317.36783"
     r="5.69344"
     id="circle58"
     style="fill:#3f3d56" />
  <circle
     cx="89.149971"
     cy="265.17789"
     r="5.69344"
     id="circle60"
     style="fill:#3f3d56" />
  <polygon
     points="271.052,236.276 228.402,236.276 228.402,234.276 273.052,234.276 273.052,335.755 271.052,335.755 "
     id="polygon62"
     transform="translate(-67.135123,-23.132188)"
     style="fill:#3f3d56" />
  <circle
     cx="131.85077"
     cy="353.42618"
     r="5.69344"
     id="circle64"
     style="fill:#ffbd2b;fill-opacity:1" />
  <polygon
     points="197.986,272.334 155.336,272.334 155.336,270.334 199.986,270.334 199.986,371.814 197.986,371.814 "
     id="polygon66"
     transform="translate(-67.135123,-23.132188)"
     style="fill:#3f3d56" />
  <circle
     cx="263.74893"
     cy="308.82755"
     r="5.69344"
     id="circle68"
     style="fill:#ffbd2b;fill-opacity:1" />
  <polygon
     points="329.884,227.736 302.417,227.736 302.417,225.736 331.884,225.736 331.884,327.215 329.884,327.215 "
     id="polygon70"
     transform="translate(-67.135123,-23.132188)"
     style="fill:#3f3d56" />
  <polygon
     points="155.285,233.155 185.701,233.155 185.701,235.155 157.285,235.155 157.285,282.616 155.285,282.616 "
     id="polygon72"
     transform="translate(-67.135123,-23.132188)"
     style="fill:#3f3d56" />
  <circle
     cx="161.74139"
     cy="375.72549"
     r="5.69344"
     id="circle74"
     style="fill:#3f3d56" />
  <polygon
     points="227.876,345.703 199.46,345.703 199.46,343.703 229.876,343.703 229.876,393.164 227.876,393.164 "
     id="polygon76"
     transform="translate(-67.135123,-23.132188)"
     style="fill:#3f3d56" />
  <circle
     cx="234.33278"
     cy="333.49918"
     r="5.69344"
     id="circle78"
     style="fill:#3f3d56" />
  <polygon
     points="300.468,301.477 330.884,301.477 330.884,303.477 302.468,303.477 302.468,350.938 300.468,350.938 "
     id="polygon80"
     transform="translate(-67.135123,-23.132188)"
     style="fill:#3f3d56" />
</svg>
